<svg width="24" height="24" viewBox="0 0 24 24" fill="none" xmlns="http://www.w3.org/2000/svg">
<path d="M16 16V17.875C16 18.4963 16.6716 19 17.5 19C18.3284 19 19 18.4963 19 17.875V16" stroke="#94BDDB" stroke-width="1.5" stroke-linecap="round"/>
<path d="M8 4H5.5C5.22386 4 5 4.3198 5 4.71429V6.42857M5 6.42857V8.28571C5 8.6802 5.22386 9 5.5 9H8M5 6.42857L7.47235 6.4286" stroke="#94BDDB" stroke-width="1.5" stroke-linecap="round"/>
<path d="M9.73721 10.939C8.82776 11.5994 7.71259 12 6.49999 12C3.46849 12 1 9.5423 1 6.49997C1 3.46846 3.45767 1 6.49999 1C9.53149 1 12 3.45764 12 6.49997" stroke="#94BDDB" stroke-width="1.5" stroke-linecap="round" stroke-linejoin="round"/>
<path d="M21.9893 19.2699C22.0345 21.1401 21.1311 22.0436 19.2609 21.9984H15.7194C13.9034 22.0436 13 21.1401 13 19.2699V15.7284C13 13.9035 13.9035 13 15.7284 13H19.27C21.1401 13 22.0436 13.9035 21.9984 15.7284" stroke="#94BDDB" stroke-width="1.5" stroke-linecap="round" stroke-linejoin="round"/>
<path d="M2 15C2 18.87 5.13 22 9 22L7.95 20.25" stroke="#94BDDB" stroke-width="1.5" stroke-linecap="round" stroke-linejoin="round"/>
<path d="M22 9C22 5.13 18.87 2 15 2L16.05 3.75" stroke="#94BDDB" stroke-width="1.5" stroke-linecap="round" stroke-linejoin="round"/>
</svg>
