<svg version="1.1" id="Layer_1" xmlns="http://www.w3.org/2000/svg" xmlns:xlink="http://www.w3.org/1999/xlink" x="0px" y="0px"
	 width="100%" viewBox="0 0 1080 1080" enable-background="new 0 0 1080 1080" xml:space="preserve">

<path fill="#FDFEFE" opacity="1.000000" stroke="none" 
	d="
M761.405762,472.599731 
	C765.924316,479.364502 770.230408,485.836823 774.536499,492.309143 
	C774.957886,492.246460 775.379211,492.183807 775.800598,492.121124 
	C775.921936,490.454865 776.149231,488.788605 776.149292,487.122345 
	C776.153992,407.629669 776.137878,328.137024 776.127991,248.644348 
	C776.127197,241.989426 776.139648,241.981873 782.616699,241.978409 
	C793.903442,241.972397 805.190247,241.976730 816.855103,241.976730 
	C816.855103,349.453247 816.855103,456.348816 816.855103,563.799255 
	C815.177429,563.886292 813.578857,564.038147 811.980042,564.041138 
	C800.647766,564.062134 789.313049,563.922302 777.984619,564.131775 
	C774.540588,564.195374 772.584351,562.952271 770.713684,560.148804 
	C716.867126,479.453644 662.938293,398.813354 609.017517,318.167694 
	C608.020752,316.676941 606.960022,315.228912 604.683594,313.927917 
	C604.683594,397.100983 604.683594,480.274048 604.683594,564.006042 
	C591.061218,564.006042 578.432312,564.054382 565.805908,563.898010 
	C564.958313,563.887512 563.710449,562.460999 563.394531,561.458069 
	C562.962830,560.087769 563.227295,558.492004 563.227234,556.992859 
	C563.224121,454.335541 563.223938,351.678192 563.225403,249.020874 
	C563.225525,241.974960 563.232300,241.975479 570.346008,241.975906 
	C581.178345,241.976562 592.016357,241.792923 602.838257,242.129059 
	C605.042358,242.197510 608.038574,243.647079 609.233643,245.425140 
	C649.707520,305.643250 690.002991,365.981262 730.335999,426.294098 
	C740.601685,441.645233 750.906494,456.970245 761.405762,472.599731 
z"/>
<path fill="#FDFEFE" opacity="1.000000" stroke="none" 
	d="
M401.000061,378.876617 
	C421.811188,378.876617 442.122314,378.876617 462.934692,378.876617 
	C462.934692,391.462006 462.934692,403.792847 462.934692,416.389435 
	C460.738068,416.497742 458.925537,416.664795 457.112915,416.665192 
	C401.625519,416.678192 346.137939,416.725983 290.650970,416.575684 
	C286.268982,416.563812 284.943726,417.691345 284.966736,422.132874 
	C285.136871,454.957886 285.169312,487.784912 284.939423,520.609192 
	C284.904907,525.537842 286.710846,526.286560 291.009399,526.278625 
	C352.661865,526.164917 414.314606,526.200317 475.967285,526.199036 
	C483.075348,526.198914 483.077698,526.196777 483.081085,533.250244 
	C483.084290,539.912903 483.081787,546.575562 483.081787,553.619995 
	C403.072845,553.619995 323.209717,553.619995 243.017746,553.619995 
	C243.017746,449.929749 243.017746,346.234253 243.017746,242.257446 
	C320.412231,242.257446 397.650116,242.257446 475.212585,242.257446 
	C475.212585,254.608261 475.212585,266.856354 475.212585,279.857056 
	C473.380310,279.857056 471.639618,279.857086 469.898956,279.857086 
	C410.412445,279.856750 350.925812,279.910645 291.439728,279.755249 
	C286.572784,279.742523 284.871338,280.728241 284.923492,286.025330 
	C285.207275,314.849335 285.174744,343.678528 284.950653,372.503540 
	C284.910736,377.633942 286.559570,378.996429 291.526276,378.971954 
	C327.850128,378.792938 364.175293,378.876160 401.000061,378.876617 
z"/>
<path fill="#93BCDB" opacity="1.000000" stroke="none"
	d="
M562.169800,656.024780
	C562.169800,642.380676 562.169800,628.736633 562.169800,614.633240
	C563.740967,614.492310 565.175354,614.244446 566.608276,614.252441
	C611.087830,614.501160 655.569092,614.614380 700.045837,615.117432
	C719.926697,615.342346 739.588501,617.737854 758.657532,623.814026
	C787.396973,632.971619 806.502502,652.639282 818.428772,679.599426
	C826.789307,698.498962 828.813232,718.767456 828.930969,739.226257
	C829.068237,763.085266 826.236023,786.417847 816.275146,808.460510
	C803.756165,836.164429 782.238403,853.045410 753.270203,860.895874
	C735.321045,865.760132 716.964539,867.828125 698.399353,867.839844
	C654.750610,867.867310 611.101746,867.767517 567.452942,867.703003
	C565.825500,867.700562 564.198242,867.527893 562.295593,867.418884
	C562.295593,853.319702 562.295593,839.574219 562.295593,825.059875
	C564.494751,825.059875 566.588440,825.056824 568.682129,825.060303
	C611.164795,825.131958 653.654419,825.668640 696.126465,825.031067
	C711.499512,824.800354 727.141235,823.112793 742.106140,819.676208
	C763.419006,814.781982 777.641541,800.413330 784.607239,779.747925
	C794.189026,751.321045 792.806335,722.819336 781.644409,695.211182
	C774.768250,678.203552 760.832825,668.117920 743.113159,664.070923
	C731.139893,661.336426 718.876709,659.871643 706.126099,657.390137
	C703.765259,656.629150 702.021851,656.045837 700.277832,656.044189
	C654.241882,656.001038 608.205811,656.018005 562.169800,656.024780
z"/>
<path fill="#93BCDA" opacity="1.000000" stroke="none"
	d="
M386.140045,846.835815
	C311.142578,812.244812 264.547119,755.042542 247.421066,674.568848
	C244.225800,659.554504 243.447403,643.886963 242.939178,628.475220
	C242.324677,609.840454 261.190094,598.853333 277.251282,608.159119
	C295.404755,618.677185 313.295166,629.661621 331.102631,640.759949
	C342.054260,647.585449 345.173950,661.261414 338.758179,671.791626
	C332.192688,682.567505 319.200623,686.044067 307.847015,679.904297
	C303.365479,677.480713 299.077637,674.698914 293.530029,671.379211
	C294.293579,674.752869 294.632568,676.830505 295.235046,678.828674
	C317.324585,752.091675 365.557587,798.000244 439.903229,815.880676
	C452.731445,818.965942 466.227203,819.605896 479.473541,820.529358
	C492.653839,821.448242 502.326416,830.621521 502.245392,843.442566
	C502.165436,856.095276 492.199127,866.146912 479.187561,866.114685
	C447.010315,866.034973 416.084961,859.669067 386.140045,846.835815
z"/>
<path fill="#9ECAEA" opacity="1.000000" stroke="none"
	d="
M562.371338,656.393921
	C608.205811,656.018005 654.241882,656.001038 700.277832,656.044189
	C702.021851,656.045837 703.765259,656.629150 705.714722,657.238525
	C658.461731,657.352600 611.003052,657.170105 563.544373,656.977600
	C563.220276,656.976257 562.896729,656.837524 562.371338,656.393921
z"/>
</svg>