<svg width="211" height="105" viewBox="0 0 211 105" fill="none" xmlns="http://www.w3.org/2000/svg">
<path d="M119.614 0.187836C119.764 0.180674 119.915 0.16725 120.065 0.167235C129.424 0.166238 138.783 0.166339 148.141 0.166344C148.183 0.166344 148.224 0.166122 148.265 0.166399C148.989 0.171176 149.183 0.498015 148.825 1.12567C147.328 3.75001 145.83 6.37341 144.331 8.99622C136.48 22.73 128.628 36.4635 120.777 50.1971C120.737 50.2686 120.697 50.3409 120.656 50.4121C120.287 51.0453 119.969 51.0443 119.603 50.4047C116.365 44.7428 113.126 39.081 109.89 33.418C108.452 30.9026 107.019 28.3844 105.584 25.798C105.587 25.6994 105.591 25.6702 105.605 25.6145C105.68 25.4671 105.743 25.3448 105.811 25.2256C110.383 17.2228 114.954 9.21904 119.535 1.22131C119.738 0.867381 119.829 0.551162 119.614 0.187836Z" fill="#B5D1E4"/>
<path d="M105.595 25.641C105.591 25.6702 105.588 25.6994 105.578 25.7725C105.472 25.9338 105.35 26.0388 105.275 26.1705C100.678 34.2035 96.0856 42.2387 91.4926 50.2738C91.4653 50.3214 91.4356 50.3679 91.4117 50.4172C91.1392 50.9772 90.6859 51.0009 90.367 50.4336C89.0467 48.0855 87.6995 45.7525 86.3627 43.4136C78.2744 29.2623 70.1864 15.1108 62.0983 0.959346C61.867 0.554626 62.058 0.198895 62.5232 0.167517C62.5643 0.164749 62.6057 0.166501 62.6469 0.166506C72.2126 0.167588 81.7783 0.168705 91.3728 0.205096C91.1161 0.655489 91.3609 0.998612 91.5574 1.3432C92.6326 3.22804 93.7109 5.11111 94.788 6.99487C98.2848 13.1107 101.781 19.227 105.283 25.3398C105.352 25.4603 105.49 25.5415 105.595 25.641Z" fill="#C4DBEA"/>
<path d="M105.606 25.6144C105.49 25.5415 105.352 25.4603 105.283 25.3398C101.781 19.227 98.285 13.1107 94.7881 6.99487C93.7111 5.11112 92.6328 3.22804 91.5576 1.34321C91.361 0.998619 91.1163 0.655497 91.4112 0.212604C91.5577 0.178629 91.6948 0.167017 91.8319 0.167002C100.944 0.166146 110.056 0.166191 119.167 0.166619C119.291 0.166624 119.415 0.172614 119.576 0.1818C119.829 0.551121 119.738 0.86734 119.536 1.22127C114.954 9.21899 110.384 17.2227 105.811 25.2256C105.743 25.3447 105.681 25.4671 105.606 25.6144Z" fill="#EDF4F8"/>
<path d="M47.0697 77.7769L39.4167 98.3904L31.2436 77.7769H23.0333L14.8974 98.353L7.2072 77.7769H0L10.2535 103.965H19.4669L27.157 84.249L34.81 103.965H44.0605L54.314 77.7769H47.0697Z" fill="white"/>
<path d="M56.3512 74.0358V79.61H62.704V74.0358H56.3512ZM56.3512 81.9295V103.965H62.704V81.9295H56.3512Z" fill="white"/>
<path d="M65.1222 96.2206C65.1222 103.254 72.9238 104.339 81.357 104.339C89.7902 104.339 95.3627 103.254 95.3627 97.0436C95.3627 91.1701 89.5301 90.9456 80.9855 90.3096C73.4439 89.7484 72.2923 89.524 72.2923 88.1398C72.2923 86.8678 74.0012 86.4189 80.0196 86.4189C85.9265 86.4189 88.2298 86.8678 88.2298 88.7009H94.6197C94.6197 82.6403 88.6385 81.5554 80.3911 81.5554C72.5895 81.5554 65.9024 82.6403 65.9024 88.4016C65.9024 93.714 70.6205 94.4623 80.2425 95.0234C87.9326 95.5098 88.9729 95.622 88.9729 97.3055C88.9729 99.0264 87.8583 99.4753 80.9855 99.4753C73.8897 99.4753 71.475 98.5775 71.475 96.2206H65.1222Z" fill="white"/>
<path d="M121.156 74.0358V85.3713C118.778 82.8648 114.952 81.5554 110.233 81.5554C103.212 81.5554 97.1936 84.5483 97.1936 92.9658C97.1936 101.383 103.212 104.339 110.233 104.339C114.952 104.339 118.778 103.029 121.156 100.523V103.965H127.508V74.0358H121.156ZM112.351 98.989C106.667 98.989 103.583 97.3055 103.583 92.9658C103.583 88.5887 106.667 86.9052 112.351 86.9052C118.035 86.9052 121.156 88.5887 121.156 92.9658C121.156 97.3055 118.035 98.989 112.351 98.989Z" fill="white"/>
<path d="M145.075 104.339C154.103 104.339 160.233 101.047 160.233 92.9658C160.233 84.8476 154.103 81.5554 145.075 81.5554C136.011 81.5554 129.918 84.8476 129.918 92.9658C129.918 101.047 136.011 104.339 145.075 104.339ZM145.075 98.989C139.168 98.989 136.271 97.53 136.271 92.9658C136.271 88.3642 139.168 86.9052 145.075 86.9052C150.945 86.9052 153.843 88.3642 153.843 92.9658C153.843 97.53 150.945 98.989 145.075 98.989Z" fill="white"/>
<path d="M200.619 81.5554C195.195 81.5554 191.294 83.4634 188.471 85.5958C186.799 82.5281 183.678 81.5554 180.372 81.5554C174.948 81.5554 171.381 83.613 169.004 85.521V81.9295H162.651V103.965H169.004V90.983C170.824 89.0002 174.391 87.0923 178.068 87.0923C182.601 87.0923 183.381 89.524 183.381 94.2004V103.965H189.734L189.808 91.619C189.808 91.2075 189.808 90.8334 189.771 90.4593C191.703 88.7009 194.972 87.0923 198.316 87.0923C202.848 87.0923 203.628 89.524 203.628 94.2004V103.965H209.981L210.055 91.619C209.981 83.6504 205.523 81.5554 200.619 81.5554Z" fill="white"/>
</svg>
