<svg width="179" height="46" viewBox="0 0 179 46" fill="none" xmlns="http://www.w3.org/2000/svg">
<path d="M59.9563 6.8645V11.1348H64.8572V6.8645H59.9563ZM59.9563 12.9118V29.7925H64.8572V12.9118H59.9563Z" fill="#0063A4"/>
<path d="M66.7228 23.8599C66.7228 29.248 72.7414 30.0791 79.2472 30.0791C85.753 30.0791 90.052 29.248 90.052 24.4904C90.052 19.9908 85.5524 19.8188 78.9606 19.3316C73.1426 18.9017 72.2541 18.7298 72.2541 17.6693C72.2541 16.6949 73.5725 16.351 78.2154 16.351C82.7724 16.351 84.5493 16.6949 84.5493 18.0992H89.4788C89.4788 13.4563 84.8646 12.6252 78.502 12.6252C72.4834 12.6252 67.3246 13.4563 67.3246 17.87C67.3246 21.9397 70.9644 22.5129 78.3874 22.9428C84.32 23.3154 85.1225 23.4013 85.1225 24.691C85.1225 26.0094 84.2627 26.3533 78.9606 26.3533C73.4865 26.3533 71.6236 25.6655 71.6236 23.8599H66.7228Z" fill="#0063A4"/>
<path d="M109.95 6.8645V15.5485C108.116 13.6283 105.164 12.6252 101.524 12.6252C96.1073 12.6252 91.4644 14.918 91.4644 21.3665C91.4644 27.815 96.1073 30.0791 101.524 30.0791C105.164 30.0791 108.116 29.076 109.95 27.1558V29.7925H114.851V6.8645H109.95ZM103.158 25.9807C98.7727 25.9807 96.3939 24.691 96.3939 21.3665C96.3939 18.0133 98.7727 16.7236 103.158 16.7236C107.543 16.7236 109.95 18.0133 109.95 21.3665C109.95 24.691 107.543 25.9807 103.158 25.9807Z" fill="#0063A4"/>
<path d="M128.403 30.0791C135.368 30.0791 140.096 27.557 140.096 21.3665C140.096 15.1472 135.368 12.6252 128.403 12.6252C121.41 12.6252 116.71 15.1472 116.71 21.3665C116.71 27.557 121.41 30.0791 128.403 30.0791ZM128.403 25.9807C123.846 25.9807 121.611 24.863 121.611 21.3665C121.611 17.8413 123.846 16.7236 128.403 16.7236C132.931 16.7236 135.167 17.8413 135.167 21.3665C135.167 24.863 132.931 25.9807 128.403 25.9807Z" fill="#0063A4"/>
<path d="M171.253 12.6252C167.068 12.6252 164.059 14.0868 161.881 15.7205C160.591 13.3703 158.184 12.6252 155.633 12.6252C151.449 12.6252 148.697 14.2015 146.863 15.6631V12.9118H141.962V29.7925H146.863V19.8475C148.267 18.3285 151.019 16.8669 153.856 16.8669C157.352 16.8669 157.954 18.7298 157.954 22.3123V29.7925H162.855L162.913 20.3347C162.913 20.0195 162.913 19.7329 162.884 19.4463C164.374 18.0992 166.896 16.8669 169.476 16.8669C172.972 16.8669 173.574 18.7298 173.574 22.3123V29.7925H178.475L178.532 20.3347C178.475 14.2301 175.036 12.6252 171.253 12.6252Z" fill="#0063A4"/>
<path d="M29.901 15.1793C29.2211 16.2098 28.5444 17.2419 27.8608 18.2707C25.477 21.8584 23.0908 25.445 20.7055 29.032C20.5379 29.284 20.3737 29.5378 20.2002 29.7869C20.0135 30.0549 19.7367 30.0486 19.5595 29.7818C17.71 26.9974 15.8597 24.2134 14.0088 21.4296C10.4187 16.0302 6.82903 10.6306 3.23722 5.23205C2.19958 3.67244 1.15438 2.11656 0.114534 0.558037C-0.118494 0.208773 0.00857248 0.000955964 0.454582 0.000940695C7.03631 0.00071035 13.618 0.00159127 20.2225 0.02421C20.1194 0.198713 20.108 0.336887 20.227 0.513834C21.0342 1.71403 21.8259 2.92188 22.624 4.12656C23.3148 5.16916 24.0067 6.21118 24.6994 7.25282C25.5137 8.4774 26.3288 9.7016 27.1447 10.9254C27.7871 11.8889 28.4347 12.8499 29.0732 13.8152C29.357 14.2443 29.6242 14.6814 29.8989 15.131C29.8996 15.1578 29.9003 15.1685 29.901 15.1793Z" fill="#3A86B8"/>
<path d="M29.9201 15.179C29.9001 15.1682 29.8994 15.1575 29.9163 15.1251C29.963 15.0724 29.9975 15.0439 30.0203 15.0097C30.7573 13.9062 31.4941 12.8025 32.2288 11.6978C33.015 10.5156 33.7981 9.33183 34.584 8.14945C35.4634 6.82642 36.3449 5.50445 37.2245 4.18153C38.0106 2.99926 38.7877 1.81245 39.5876 0.637153C39.735 0.420634 39.8117 0.23559 39.6535 0.0128512C39.7664 0.00858125 39.8794 0.000584748 39.9924 0.000574357C46.4216 -2.37494e-05 52.8508 4.17802e-05 59.28 4.17802e-05C59.3083 4.17802e-05 59.3367 -6.16942e-05 59.3651 5.70393e-05C59.8733 0.00218214 60.0014 0.197019 59.7436 0.585824C58.9999 1.70718 58.2535 2.82725 57.5079 3.9477C56.3841 5.63663 55.2594 7.32513 54.1363 9.01439C49.5579 15.9006 44.9799 22.787 40.4018 29.6733C40.3783 29.7085 40.3564 29.7446 40.3316 29.7791C40.1227 30.0687 39.8941 30.0764 39.695 29.7855C39.2933 29.1985 38.9031 28.6058 38.5099 28.0146C35.7024 23.7928 32.8954 19.5708 30.087 15.3495C30.0464 15.2885 29.989 15.2357 29.9201 15.179Z" fill="#4990BE"/>
<path d="M39.6275 0.00938293C39.8118 0.235594 39.7352 0.420638 39.5878 0.637157C38.7878 1.81245 38.0108 2.99926 37.2247 4.18154C36.3451 5.50446 35.4636 6.82643 34.5842 8.14945C33.7983 9.33183 33.0151 10.5156 32.2289 11.6978C31.4943 12.8025 30.7574 13.9062 30.0204 15.0098C29.9976 15.0439 29.9631 15.0724 29.9165 15.109C29.6242 14.6811 29.357 14.244 29.0732 13.8149C28.4346 12.8496 27.7871 11.8886 27.1447 10.9251C26.3287 9.70129 25.5136 8.4771 24.6993 7.25252C24.0066 6.21088 23.3147 5.16885 22.624 4.12626C21.8259 2.92157 21.0341 1.71372 20.2269 0.513531C20.1079 0.336584 20.1194 0.19841 20.2487 0.0283633C20.3372 0.00723551 20.4221 0.000521939 20.507 0.000515207C26.7962 2.35898e-05 33.0854 4.21748e-05 39.3747 0.000302325C39.4503 0.000305691 39.5259 0.00396002 39.6275 0.00938293Z" fill="#106DA9"/>
<path d="M31.7139 36.5277V39.1329C31.1637 38.5568 30.2781 38.2559 29.1861 38.2559C27.5611 38.2559 26.1682 38.9437 26.1682 40.8783C26.1682 42.8129 27.5611 43.4921 29.1861 43.4921C30.2781 43.4921 31.1637 43.1912 31.7139 42.6151V43.4061H33.1842V36.5277H31.7139ZM29.6762 42.2626C28.3607 42.2626 27.6471 41.8757 27.6471 40.8783C27.6471 39.8723 28.3607 39.4854 29.6762 39.4854C30.9917 39.4854 31.7139 39.8723 31.7139 40.8783C31.7139 41.8757 30.9917 42.2626 29.6762 42.2626Z" fill="#3F86B5"/>
<path d="M44.0155 36.5277V37.8088H45.4857V36.5277H44.0155ZM44.0155 38.3419V43.4061H45.4857V38.3419H44.0155Z" fill="#3F86B5"/>
<path d="M56.1911 40.8783C56.1911 42.7355 57.6011 43.4921 59.699 43.4921C61.5906 43.4921 62.9233 42.873 63.164 41.3856H61.6594C61.4616 42.039 60.7652 42.2626 59.699 42.2626C58.4351 42.2626 57.6613 41.9273 57.6613 40.8783C57.6613 39.8207 58.4351 39.4854 59.699 39.4854C60.7652 39.4854 61.4616 39.709 61.6594 40.3624H63.164C62.9233 38.875 61.5906 38.2559 59.699 38.2559C57.6011 38.2559 56.1911 39.0125 56.1911 40.8783Z" fill="#3F86B5"/>
<path d="M78.6253 39.5714V38.3419H76.2265V36.8716L74.7476 37.2929V38.3419H73.4149V39.5714H74.7476V41.8843C74.7476 43.002 75.5902 43.4921 76.8971 43.4921C77.5764 43.4921 78.1353 43.4491 78.6253 43.3631V42.1766C78.0321 42.2626 77.7741 42.2626 77.3098 42.2626C76.4156 42.2626 76.2265 42.0132 76.2265 41.0331V39.5714H78.6253Z" fill="#3F86B5"/>
<path d="M89.373 36.5277V37.8088H90.8432V36.5277H89.373ZM89.373 38.3419V43.4061H90.8432V38.3419H89.373Z" fill="#3F86B5"/>
<path d="M105.057 43.4921C107.146 43.4921 108.565 42.7355 108.565 40.8783C108.565 39.0125 107.146 38.2559 105.057 38.2559C102.959 38.2559 101.549 39.0125 101.549 40.8783C101.549 42.7355 102.959 43.4921 105.057 43.4921ZM105.057 42.2626C103.689 42.2626 103.019 41.9273 103.019 40.8783C103.019 39.8207 103.689 39.4854 105.057 39.4854C106.415 39.4854 107.086 39.8207 107.086 40.8783C107.086 41.9273 106.415 42.2626 105.057 42.2626Z" fill="#3F86B5"/>
<path d="M123.689 38.2559C122.46 38.2559 121.462 38.66 120.74 39.2275V38.3419H119.27V43.4061H120.74V40.5688C121.196 40.0357 122.262 39.5284 123.251 39.5284C124.463 39.5284 124.824 40.0873 124.824 41.162V43.4061H126.303L126.32 40.6032C126.303 38.7374 125.039 38.2559 123.689 38.2559Z" fill="#3F86B5"/>
<path d="M140.504 38.2559C139.446 38.2559 138.432 38.4451 137.4 38.7804L137.925 39.8551C138.965 39.5456 139.773 39.4854 140.435 39.4854C141.123 39.4854 142.361 39.5628 142.361 40.5258C141.699 40.3022 140.899 40.1647 140.031 40.1647C138.423 40.1647 136.979 40.5774 136.979 41.8929C136.979 43.0364 137.864 43.4921 139.283 43.4921C140.478 43.4921 141.467 43.217 142.361 42.7785V43.4061H143.84V40.8525C143.823 38.9352 142.619 38.2559 140.504 38.2559ZM142.361 41.8327C141.604 42.1594 140.504 42.4087 139.704 42.4087C138.939 42.4087 138.449 42.3658 138.449 41.8327C138.449 41.3168 139.111 41.1276 140.212 41.1276C141.149 41.1276 141.845 41.2738 142.361 41.4372V41.8327Z" fill="#3F86B5"/>
<path d="M158.708 38.2559C157.762 38.2559 156.868 38.5224 156.112 39.2017V38.3419H154.641V43.4061H156.112V40.371C157.006 39.6746 157.952 39.4854 158.777 39.4854C159.207 39.4854 159.594 39.537 160.075 39.6574V38.4279C159.731 38.3419 159.31 38.2559 158.708 38.2559Z" fill="#3F86B5"/>
<path d="M176.314 38.3419L174.337 42.5205L172.17 38.3419H170.537L173.159 43.4061H173.916L172.892 45.5556H174.517L177.939 38.3419H176.314Z" fill="#3F86B5"/>
</svg>
