<svg width="181" height="53" viewBox="0 0 181 53" fill="none" xmlns="http://www.w3.org/2000/svg">
<path d="M61.8909 13.8499V18.1157H66.7865V13.8499H61.8909ZM61.8909 19.8907V36.7536H66.7865V19.8907H61.8909Z" fill="white"/>
<path d="M68.6502 30.8273C68.6502 36.2096 74.6624 37.0399 81.1613 37.0399C87.6603 37.0399 91.9547 36.2096 91.9547 31.4571C91.9547 26.9623 87.4599 26.7905 80.875 26.3038C75.0632 25.8743 74.1757 25.7025 74.1757 24.6432C74.1757 23.6698 75.4927 23.3263 80.1307 23.3263C84.6828 23.3263 86.4578 23.6698 86.4578 25.0727H91.3821C91.3821 20.4347 86.7728 19.6044 80.417 19.6044C74.4047 19.6044 69.2514 20.4347 69.2514 24.8437C69.2514 28.9091 72.8874 29.4817 80.3024 29.9111C86.2288 30.2833 87.0304 30.3692 87.0304 31.6575C87.0304 32.9745 86.1715 33.318 80.875 33.318C75.4068 33.318 73.5458 32.6309 73.5458 30.8273H68.6502Z" fill="white"/>
<path d="M111.832 13.8499V22.5247C109.999 20.6065 107.051 19.6044 103.415 19.6044C98.0036 19.6044 93.3656 21.8948 93.3656 28.3365C93.3656 34.7782 98.0036 37.0399 103.415 37.0399C107.051 37.0399 109.999 36.0379 111.832 34.1197V36.7536H116.727V13.8499H111.832ZM105.047 32.9459C100.666 32.9459 98.2899 31.6575 98.2899 28.3365C98.2899 24.9868 100.666 23.6985 105.047 23.6985C109.427 23.6985 111.832 24.9868 111.832 28.3365C111.832 31.6575 109.427 32.9459 105.047 32.9459Z" fill="white"/>
<path d="M130.265 37.0399C137.222 37.0399 141.946 34.5205 141.946 28.3365C141.946 22.1238 137.222 19.6044 130.265 19.6044C123.28 19.6044 118.584 22.1238 118.584 28.3365C118.584 34.5205 123.28 37.0399 130.265 37.0399ZM130.265 32.9459C125.713 32.9459 123.48 31.8293 123.48 28.3365C123.48 24.815 125.713 23.6985 130.265 23.6985C134.789 23.6985 137.022 24.815 137.022 28.3365C137.022 31.8293 134.789 32.9459 130.265 32.9459Z" fill="white"/>
<path d="M173.069 19.6044C168.889 19.6044 165.883 21.0645 163.707 22.6964C162.419 20.3488 160.014 19.6044 157.466 19.6044C153.286 19.6044 150.538 21.1791 148.705 22.6392V19.8907H143.81V36.7536H148.705V26.8191C150.108 25.3017 152.857 23.8416 155.691 23.8416C159.184 23.8416 159.785 25.7025 159.785 29.2813V36.7536H164.681L164.738 27.3058C164.738 26.9909 164.738 26.7046 164.709 26.4183C166.198 25.0727 168.718 23.8416 171.294 23.8416C174.787 23.8416 175.388 25.7025 175.388 29.2813V36.7536H180.284L180.341 27.3058C180.284 21.2077 176.848 19.6044 173.069 19.6044Z" fill="white"/>
<path d="M43.1195 0.0163923C43.2322 0.0110317 43.3448 0.000984976 43.4575 0.000973681C50.4618 0.000227801 57.4661 0.000303147 64.4704 0.000306912C64.5012 0.000306912 64.5321 0.000141157 64.5629 0.00034835C65.1049 0.00392327 65.2497 0.248537 64.9818 0.71829C63.8617 2.6824 62.7403 4.64581 61.6182 6.60878C55.7425 16.8874 49.8664 27.1659 43.9905 37.4444C43.9599 37.498 43.9303 37.5521 43.8993 37.6054C43.6232 38.0792 43.3853 38.0785 43.1115 37.5998C40.6878 33.3623 38.264 29.1249 35.8418 24.8866C34.7659 23.004 33.6937 21.1193 32.6194 19.1836C32.6219 19.1098 32.6248 19.088 32.6353 19.0463C32.6916 18.936 32.7384 18.8444 32.7893 18.7552C36.2113 12.7657 39.6322 6.77554 43.0609 0.789868C43.2126 0.524979 43.2807 0.288314 43.1195 0.0163923Z" fill="#B5D1E4"/>
<path d="M32.6277 19.0661C32.6248 19.0879 32.6219 19.1098 32.6148 19.1645C32.5355 19.2852 32.4441 19.3638 32.3877 19.4624C28.9476 25.4745 25.5104 31.4882 22.0729 37.5018C22.0525 37.5375 22.0303 37.5723 22.0123 37.6092C21.8084 38.0282 21.4692 38.046 21.2305 37.6215C20.2424 35.864 19.234 34.118 18.2336 32.3675C12.1802 21.7763 6.12686 11.1851 0.0735802 0.593792C-0.0995407 0.29089 0.0433835 0.0246535 0.391597 0.00116965C0.422327 -0.000902211 0.453296 0.000408708 0.484154 0.000412473C7.64334 0.00122236 14.8025 0.00205869 21.9833 0.0292945C21.7912 0.366379 21.9743 0.623179 22.1214 0.881076C22.9261 2.29173 23.7331 3.70107 24.5392 5.11091C27.1564 9.68815 29.773 14.2657 32.394 18.8407C32.4457 18.9309 32.5487 18.9916 32.6277 19.0661Z" fill="#C4DBEA"/>
<path d="M32.6354 19.0462C32.5489 18.9916 32.4458 18.9309 32.3942 18.8407C29.7732 14.2657 27.1565 9.68819 24.5394 5.11095C23.7333 3.7011 22.9263 2.29177 22.1216 0.881113C21.9745 0.623216 21.7913 0.366416 22.0121 0.0349444C22.1217 0.00951681 22.2243 0.000826176 22.3269 0.000814881C29.1464 0.00017448 35.9659 0.000208384 42.7854 0.000528585C42.878 0.00053235 42.9705 0.00501516 43.0913 0.01189C43.2809 0.288298 43.2128 0.524964 43.061 0.789852C39.6323 6.77553 36.2115 12.7657 32.7895 18.7552C32.7385 18.8444 32.6917 18.9359 32.6354 19.0462Z" fill="#EDF4F8"/>
<path d="M33.678 43.4817V46.0841C33.1283 45.5087 32.2437 45.2081 31.1529 45.2081C29.5296 45.2081 28.1382 45.8952 28.1382 47.8277C28.1382 49.7602 29.5296 50.4387 31.1529 50.4387C32.2437 50.4387 33.1283 50.1381 33.678 49.5626V50.3528H35.1467V43.4817H33.678ZM31.6425 49.2105C30.3284 49.2105 29.6155 48.824 29.6155 47.8277C29.6155 46.8228 30.3284 46.4363 31.6425 46.4363C32.9566 46.4363 33.678 46.8228 33.678 47.8277C33.678 48.824 32.9566 49.2105 31.6425 49.2105Z" fill="white"/>
<path d="M45.9665 43.4817V44.7614H47.4352V43.4817H45.9665ZM45.9665 45.2939V50.3528H47.4352V45.2939H45.9665Z" fill="white"/>
<path d="M58.1292 47.8277C58.1292 49.6829 59.5378 50.4387 61.6335 50.4387C63.5231 50.4387 64.8544 49.8203 65.0949 48.3344H63.5918C63.3942 48.9872 62.6985 49.2105 61.6335 49.2105C60.3709 49.2105 59.5979 48.8755 59.5979 47.8277C59.5979 46.7712 60.3709 46.4363 61.6335 46.4363C62.6985 46.4363 63.3942 46.6596 63.5918 47.3123H65.0949C64.8544 45.8265 63.5231 45.2081 61.6335 45.2081C59.5378 45.2081 58.1292 45.9639 58.1292 47.8277Z" fill="white"/>
<path d="M80.5398 46.5222V45.2939H78.1435V43.8252L76.6662 44.2461V45.2939H75.3349V46.5222H76.6662V48.8326C76.6662 49.9491 77.5079 50.4387 78.8134 50.4387C79.4919 50.4387 80.0502 50.3958 80.5398 50.3099V49.1246C79.9472 49.2105 79.6895 49.2105 79.2257 49.2105C78.3324 49.2105 78.1435 48.9614 78.1435 47.9823V46.5222H80.5398Z" fill="white"/>
<path d="M91.2761 43.4817V44.7614H92.7448V43.4817H91.2761ZM91.2761 45.2939V50.3528H92.7448V45.2939H91.2761Z" fill="white"/>
<path d="M106.943 50.4387C109.03 50.4387 110.447 49.6829 110.447 47.8277C110.447 45.9639 109.03 45.2081 106.943 45.2081C104.847 45.2081 103.439 45.9639 103.439 47.8277C103.439 49.6829 104.847 50.4387 106.943 50.4387ZM106.943 49.2105C105.577 49.2105 104.907 48.8755 104.907 47.8277C104.907 46.7712 105.577 46.4363 106.943 46.4363C108.3 46.4363 108.97 46.7712 108.97 47.8277C108.97 48.8755 108.3 49.2105 106.943 49.2105Z" fill="white"/>
<path d="M125.556 45.2081C124.328 45.2081 123.331 45.6117 122.61 46.1786V45.2939H121.141V50.3528H122.61V47.5185C123.065 46.986 124.13 46.4792 125.118 46.4792C126.329 46.4792 126.69 47.0375 126.69 48.1111V50.3528H128.167L128.184 47.5528C128.167 45.689 126.904 45.2081 125.556 45.2081Z" fill="white"/>
<path d="M142.353 45.2081C141.296 45.2081 140.283 45.397 139.252 45.732L139.776 46.8056C140.815 46.4964 141.623 46.4363 142.284 46.4363C142.971 46.4363 144.208 46.5136 144.208 47.4755C143.547 47.2522 142.748 47.1148 141.88 47.1148C140.274 47.1148 138.831 47.5271 138.831 48.8412C138.831 49.9835 139.716 50.4387 141.133 50.4387C142.327 50.4387 143.315 50.1639 144.208 49.7258V50.3528H145.685V47.8019C145.668 45.8866 144.466 45.2081 142.353 45.2081ZM144.208 48.781C143.452 49.1074 142.353 49.3565 141.554 49.3565C140.79 49.3565 140.3 49.3136 140.3 48.781C140.3 48.2657 140.961 48.0768 142.061 48.0768C142.997 48.0768 143.693 48.2228 144.208 48.386V48.781Z" fill="white"/>
<path d="M160.538 45.2081C159.593 45.2081 158.7 45.4743 157.944 46.1528V45.2939H156.475V50.3528H157.944V47.3209C158.837 46.6252 159.782 46.4363 160.607 46.4363C161.036 46.4363 161.422 46.4878 161.903 46.6081V45.3798C161.56 45.2939 161.139 45.2081 160.538 45.2081Z" fill="white"/>
<path d="M178.125 45.2939L176.15 49.4682L173.986 45.2939H172.354L174.973 50.3528H175.729L174.707 52.5H176.33L179.749 45.2939H178.125Z" fill="white"/>
</svg>
