<svg width="180" height="53" viewBox="0 0 180 53" fill="none" xmlns="http://www.w3.org/2000/svg">
<path d="M61.7737 13.8499V18.1157H66.6601V13.8499H61.7737ZM61.7737 19.8907V36.7536H66.6601V19.8907H61.7737Z" fill="#0063A4"/>
<path d="M68.5202 30.8273C68.5202 36.2096 74.521 37.0399 81.0077 37.0399C87.4943 37.0399 91.7807 36.2096 91.7807 31.4571C91.7807 26.9623 87.2943 26.7905 80.7219 26.3038C74.9211 25.8743 74.0353 25.7025 74.0353 24.6432C74.0353 23.6698 75.3497 23.3263 79.979 23.3263C84.5225 23.3263 86.2942 23.6698 86.2942 25.0727H91.2092C91.2092 20.4347 86.6085 19.6044 80.2647 19.6044C74.2639 19.6044 69.1203 20.4347 69.1203 24.8437C69.1203 28.9091 72.7494 29.4817 80.1504 29.9111C86.0656 30.2833 86.8657 30.3692 86.8657 31.6575C86.8657 32.9745 86.0084 33.318 80.7219 33.318C75.264 33.318 73.4066 32.6309 73.4066 30.8273H68.5202Z" fill="#0063A4"/>
<path d="M111.62 13.8499V22.5247C109.791 20.6065 106.848 19.6044 103.219 19.6044C97.8181 19.6044 93.1889 21.8948 93.1889 28.3365C93.1889 34.7782 97.8181 37.0399 103.219 37.0399C106.848 37.0399 109.791 36.0379 111.62 34.1197V36.7536H116.507V13.8499H111.62ZM104.848 32.9459C100.476 32.9459 98.1039 31.6575 98.1039 28.3365C98.1039 24.9868 100.476 23.6985 104.848 23.6985C109.22 23.6985 111.62 24.9868 111.62 28.3365C111.62 31.6575 109.22 32.9459 104.848 32.9459Z" fill="#0063A4"/>
<path d="M130.019 37.0399C136.963 37.0399 141.678 34.5205 141.678 28.3365C141.678 22.1238 136.963 19.6044 130.019 19.6044C123.046 19.6044 118.36 22.1238 118.36 28.3365C118.36 34.5205 123.046 37.0399 130.019 37.0399ZM130.019 32.9459C125.475 32.9459 123.246 31.8293 123.246 28.3365C123.246 24.815 125.475 23.6985 130.019 23.6985C134.534 23.6985 136.763 24.815 136.763 28.3365C136.763 31.8293 134.534 32.9459 130.019 32.9459Z" fill="#0063A4"/>
<path d="M172.742 19.6044C168.57 19.6044 165.569 21.0645 163.398 22.6964C162.112 20.3488 159.711 19.6044 157.168 19.6044C152.996 19.6044 150.253 21.1791 148.424 22.6392V19.8907H143.538V36.7536H148.424V26.8191C149.824 25.3017 152.568 23.8416 155.397 23.8416C158.883 23.8416 159.483 25.7025 159.483 29.2813V36.7536H164.369L164.426 27.3058C164.426 26.9909 164.426 26.7046 164.398 26.4183C165.884 25.0727 168.398 23.8416 170.97 23.8416C174.456 23.8416 175.056 25.7025 175.056 29.2813V36.7536H179.943L180 27.3058C179.943 21.2077 176.514 19.6044 172.742 19.6044Z" fill="#0063A4"/>
<path d="M32.4615 19.2062C31.7234 20.5102 30.9887 21.8161 30.2466 23.1178C27.6586 27.6575 25.0682 32.1957 22.4785 36.7344C22.2966 37.0533 22.1183 37.3744 21.93 37.6895C21.7273 38.0286 21.4268 38.0207 21.2344 37.6832C19.2265 34.16 17.2178 30.6372 15.2084 27.1149C11.3109 20.2829 7.41381 13.4506 3.51443 6.61969C2.38793 4.64629 1.25323 2.67759 0.124341 0.705551C-0.128641 0.263618 0.00930656 0.000661517 0.493509 0.000642197C7.63885 0.000350736 14.7842 0.00146539 21.9542 0.0300854C21.8423 0.250889 21.8299 0.425724 21.9591 0.64962C22.8354 2.16825 23.6949 3.69658 24.5614 5.2209C25.3113 6.54012 26.0624 7.85862 26.8144 9.17664C27.6985 10.7261 28.5834 12.2751 29.4692 13.8236C30.1666 15.0428 30.8696 16.2587 31.5628 17.4802C31.8709 18.0231 32.161 18.5762 32.4592 19.1451C32.4599 19.179 32.4607 19.1926 32.4615 19.2062Z" fill="#3A86B8"/>
<path d="M32.4825 19.2064C32.4608 19.1928 32.46 19.1792 32.4783 19.1382C32.529 19.0715 32.5665 19.0355 32.5913 18.9922C33.3913 17.5958 34.1913 16.1994 34.9889 14.8015C35.8424 13.3056 36.6926 11.8078 37.5458 10.3117C38.5005 8.63765 39.4575 6.96493 40.4124 5.291C41.2658 3.79504 42.1094 2.29334 42.9779 0.806206C43.1379 0.53224 43.2211 0.298098 43.0493 0.0162609C43.172 0.0108581 43.2946 0.000739896 43.4173 0.000726749C50.397 -3.00507e-05 57.3768 5.28656e-05 64.3565 5.28656e-05C64.3873 5.28656e-05 64.4181 -7.80633e-05 64.4489 7.21733e-05C65.0006 0.00276112 65.1398 0.249293 64.8598 0.741259C64.0524 2.16014 63.2422 3.57739 62.4327 4.99513C61.2127 7.13218 59.9917 9.26867 58.7724 11.4061C53.8019 20.1194 48.8319 28.8329 43.8617 37.5464C43.8363 37.591 43.8125 37.6366 43.7855 37.6802C43.5587 38.0467 43.3105 38.0564 43.0945 37.6884C42.6584 36.9457 42.2347 36.1957 41.8078 35.4476C38.7599 30.1057 35.7126 24.7634 32.6637 19.4221C32.6196 19.3449 32.5573 19.2781 32.4825 19.2064Z" fill="#4990BE"/>
<path d="M43.021 0.0119011C43.2211 0.298132 43.1379 0.532273 42.9779 0.806239C42.1094 2.29337 41.2658 3.79507 40.4124 5.29104C39.4575 6.96496 38.5005 8.63768 37.5458 10.3117C36.6926 11.8078 35.8424 13.3057 34.9889 14.8016C34.1913 16.1994 33.3913 17.5959 32.5913 18.9923C32.5665 19.0355 32.529 19.0715 32.4784 19.1179C32.1611 18.5764 31.871 18.0233 31.5629 17.4804C30.8697 16.2589 30.1667 15.0429 29.4692 13.8238C28.5834 12.2753 27.6985 10.7263 26.8145 9.17683C26.0625 7.85882 25.3113 6.54031 24.5614 5.22109C23.6949 3.69677 22.8354 2.16845 21.9591 0.649813C21.8299 0.425917 21.8423 0.251082 21.9828 0.0359175C22.0788 0.00918392 22.171 0.000689069 22.2631 0.000680552C29.0909 5.84955e-05 35.9187 8.20116e-05 42.7465 0.000411186C42.8286 0.000415445 42.9107 0.00503936 43.021 0.0119011Z" fill="#106DA9"/>
<path d="M33.6146 43.4816V46.0841C33.0659 45.5086 32.1829 45.208 31.0942 45.208C29.474 45.208 28.0852 45.8951 28.0852 47.8276C28.0852 49.7601 29.474 50.4386 31.0942 50.4386C32.1829 50.4386 33.0659 50.138 33.6146 49.5626V50.3528H35.0805V43.4816H33.6146ZM31.5829 49.2104C30.2712 49.2104 29.5597 48.8239 29.5597 47.8276C29.5597 46.8227 30.2712 46.4362 31.5829 46.4362C32.8945 46.4362 33.6146 46.8227 33.6146 47.8276C33.6146 48.8239 32.8945 49.2104 31.5829 49.2104Z" fill="#3F86B5"/>
<path d="M45.8798 43.4816V44.7614H47.3458V43.4816H45.8798ZM45.8798 45.2939V50.3528H47.3458V45.2939H45.8798Z" fill="#3F86B5"/>
<path d="M58.0195 47.8276C58.0195 49.6828 59.4254 50.4386 61.5172 50.4386C63.4032 50.4386 64.7319 49.8202 64.972 48.3344H63.4717C63.2746 48.9871 62.5802 49.2104 61.5172 49.2104C60.257 49.2104 59.4855 48.8755 59.4855 47.8276C59.4855 46.7712 60.257 46.4362 61.5172 46.4362C62.5802 46.4362 63.2746 46.6595 63.4717 47.3123H64.972C64.7319 45.8264 63.4032 45.208 61.5172 45.208C59.4254 45.208 58.0195 45.9638 58.0195 47.8276Z" fill="#3F86B5"/>
<path d="M80.3877 46.5221V45.2939H77.9959V43.8252L76.5214 44.246V45.2939H75.1926V46.5221H76.5214V48.8325C76.5214 49.9491 77.3615 50.4386 78.6646 50.4386C79.3418 50.4386 79.899 50.3957 80.3877 50.3098V49.1245C79.7962 49.2104 79.539 49.2104 79.0761 49.2104C78.1845 49.2104 77.9959 48.9614 77.9959 47.9822V46.5221H80.3877Z" fill="#3F86B5"/>
<path d="M91.1036 43.4816V44.7614H92.5696V43.4816H91.1036ZM91.1036 45.2939V50.3528H92.5696V45.2939H91.1036Z" fill="#3F86B5"/>
<path d="M106.741 50.4386C108.824 50.4386 110.239 49.6828 110.239 47.8276C110.239 45.9638 108.824 45.208 106.741 45.208C104.649 45.208 103.243 45.9638 103.243 47.8276C103.243 49.6828 104.649 50.4386 106.741 50.4386ZM106.741 49.2104C105.378 49.2104 104.709 48.8755 104.709 47.8276C104.709 46.7712 105.378 46.4362 106.741 46.4362C108.095 46.4362 108.764 46.7712 108.764 47.8276C108.764 48.8755 108.095 49.2104 106.741 49.2104Z" fill="#3F86B5"/>
<path d="M125.319 45.208C124.093 45.208 123.098 45.6117 122.378 46.1785V45.2939H120.912V50.3528H122.378V47.5184C122.833 46.9859 123.896 46.4792 124.882 46.4792C126.09 46.4792 126.45 47.0374 126.45 48.111V50.3528H127.925L127.942 47.5528C127.925 45.689 126.665 45.208 125.319 45.208Z" fill="#3F86B5"/>
<path d="M142.084 45.208C141.029 45.208 140.018 45.397 138.989 45.7319L139.512 46.8055C140.549 46.4963 141.355 46.4362 142.015 46.4362C142.701 46.4362 143.936 46.5135 143.936 47.4755C143.275 47.2522 142.478 47.1147 141.612 47.1147C140.009 47.1147 138.569 47.527 138.569 48.8411C138.569 49.9834 139.452 50.4386 140.867 50.4386C142.058 50.4386 143.044 50.1638 143.936 49.7258V50.3528H145.41V47.8018C145.393 45.8865 144.193 45.208 142.084 45.208ZM143.936 48.781C143.181 49.1074 142.084 49.3564 141.287 49.3564C140.524 49.3564 140.035 49.3135 140.035 48.781C140.035 48.2656 140.695 48.0767 141.792 48.0767C142.727 48.0767 143.421 48.2227 143.936 48.3859V48.781Z" fill="#3F86B5"/>
<path d="M160.234 45.208C159.291 45.208 158.4 45.4743 157.645 46.1528V45.2939H156.18V50.3528H157.645V47.3209C158.537 46.6252 159.48 46.4362 160.303 46.4362C160.732 46.4362 161.117 46.4877 161.597 46.608V45.3798C161.255 45.2939 160.834 45.208 160.234 45.208Z" fill="#3F86B5"/>
<path d="M177.789 45.2939L175.817 49.4681L173.657 45.2939H172.028L174.643 50.3528H175.397L174.377 52.5H175.997L179.409 45.2939H177.789Z" fill="#3F86B5"/>
</svg>
