<svg width="181" height="53" viewBox="0 0 181 53" fill="none" xmlns="http://www.w3.org/2000/svg">
<path d="M61.9563 13.8645V18.1348H66.8572V13.8645H61.9563ZM61.9563 19.9118V36.7925H66.8572V19.9118H61.9563Z" fill="white"/>
<path d="M68.7228 30.8599C68.7228 36.248 74.7414 37.0791 81.2472 37.0791C87.753 37.0791 92.052 36.248 92.052 31.4904C92.052 26.9908 87.5524 26.8188 80.9606 26.3316C75.1426 25.9017 74.2541 25.7298 74.2541 24.6693C74.2541 23.6949 75.5725 23.351 80.2154 23.351C84.7724 23.351 86.5493 23.6949 86.5493 25.0992H91.4788C91.4788 20.4563 86.8646 19.6252 80.502 19.6252C74.4834 19.6252 69.3246 20.4563 69.3246 24.87C69.3246 28.9397 72.9644 29.5129 80.3874 29.9428C86.32 30.3154 87.1225 30.4013 87.1225 31.691C87.1225 33.0094 86.2627 33.3533 80.9606 33.3533C75.4865 33.3533 73.6236 32.6655 73.6236 30.8599H68.7228Z" fill="white"/>
<path d="M111.95 13.8645V22.5485C110.116 20.6283 107.164 19.6252 103.524 19.6252C98.1073 19.6252 93.4644 21.918 93.4644 28.3665C93.4644 34.815 98.1073 37.0791 103.524 37.0791C107.164 37.0791 110.116 36.076 111.95 34.1558V36.7925H116.851V13.8645H111.95ZM105.158 32.9807C100.773 32.9807 98.3939 31.691 98.3939 28.3665C98.3939 25.0133 100.773 23.7236 105.158 23.7236C109.543 23.7236 111.95 25.0133 111.95 28.3665C111.95 31.691 109.543 32.9807 105.158 32.9807Z" fill="white"/>
<path d="M130.403 37.0791C137.368 37.0791 142.096 34.557 142.096 28.3665C142.096 22.1472 137.368 19.6252 130.403 19.6252C123.41 19.6252 118.71 22.1472 118.71 28.3665C118.71 34.557 123.41 37.0791 130.403 37.0791ZM130.403 32.9807C125.846 32.9807 123.611 31.863 123.611 28.3665C123.611 24.8413 125.846 23.7236 130.403 23.7236C134.931 23.7236 137.167 24.8413 137.167 28.3665C137.167 31.863 134.931 32.9807 130.403 32.9807Z" fill="white"/>
<path d="M173.253 19.6252C169.068 19.6252 166.059 21.0868 163.881 22.7205C162.591 20.3703 160.184 19.6252 157.633 19.6252C153.449 19.6252 150.697 21.2015 148.863 22.6631V19.9118H143.962V36.7925H148.863V26.8475C150.267 25.3285 153.019 23.8669 155.856 23.8669C159.352 23.8669 159.954 25.7298 159.954 29.3123V36.7925H164.855L164.913 27.3347C164.913 27.0195 164.913 26.7329 164.884 26.4463C166.374 25.0992 168.896 23.8669 171.476 23.8669C174.972 23.8669 175.574 25.7298 175.574 29.3123V36.7925H180.475L180.532 27.3347C180.475 21.2301 177.036 19.6252 173.253 19.6252Z" fill="white"/>
<path d="M43.1651 0.0164094C43.2778 0.0110432 43.3906 0.000985761 43.5034 0.000974454C50.5151 0.000227784 57.5268 0.00030321 64.5385 0.000306978C64.5694 0.000306978 64.6003 0.000141048 64.6312 0.00034846C65.1738 0.00392717 65.3187 0.2488 65.0505 0.71905C63.9292 2.68525 62.8067 4.65074 61.6834 6.61579C55.8014 16.9053 49.9191 27.1947 44.037 37.4841C44.0063 37.5377 43.9767 37.5919 43.9456 37.6452C43.6693 38.1196 43.4311 38.1189 43.157 37.6396C40.7307 33.3977 38.3044 29.1558 35.8797 24.913C34.8026 23.0284 33.7293 21.1417 32.6538 19.204C32.6563 19.1301 32.6592 19.1082 32.6697 19.0664C32.7261 18.956 32.7729 18.8644 32.8239 18.7751C36.2496 12.7792 39.674 6.78272 43.1064 0.790704C43.2583 0.525535 43.3264 0.288619 43.1651 0.0164094Z" fill="#B5D1E4"/>
<path d="M32.6623 19.0863C32.6594 19.1081 32.6564 19.13 32.6493 19.1848C32.57 19.3057 32.4785 19.3843 32.422 19.483C28.9783 25.5015 25.5374 31.5216 22.0963 37.5415C22.0759 37.5773 22.0536 37.6121 22.0357 37.649C21.8316 38.0685 21.4919 38.0863 21.253 37.6613C20.2638 35.902 19.2544 34.1541 18.2529 32.4018C12.1931 21.7994 6.13335 11.1969 0.0736582 0.594421C-0.0996462 0.291199 0.0434295 0.0246796 0.392012 0.00117089C0.422775 -0.000903167 0.453776 0.000409141 0.484667 0.00041291C7.65143 0.00122365 14.8182 0.00206087 22.0066 0.0293256C21.8143 0.366767 21.9976 0.623839 22.1449 0.882009C22.9504 2.29416 23.7583 3.70499 24.5652 5.11633C27.1852 9.69842 29.8046 14.2808 32.4284 18.8607C32.4801 18.9509 32.5832 19.0117 32.6623 19.0863Z" fill="#C4DBEA"/>
<path d="M32.67 19.0664C32.5833 19.0118 32.4802 18.9509 32.4285 18.8607C29.8047 14.2808 27.1853 9.69845 24.5654 5.11636C23.7584 3.70502 22.9506 2.2942 22.145 0.882046C21.9978 0.623876 21.8144 0.366803 22.0354 0.0349811C22.1451 0.00952657 22.2478 0.000826728 22.3505 0.000815422C29.1773 0.000174341 36.004 0.000208282 42.8308 0.000528822C42.9234 0.000532591 43.016 0.00502015 43.137 0.0119023C43.3267 0.288603 43.2585 0.525519 43.1066 0.790688C39.6743 6.78271 36.2498 12.7792 32.8242 18.7751C32.7732 18.8643 32.7263 18.956 32.67 19.0664Z" fill="#EDF4F8"/>
<path d="M33.7139 43.5277V46.1329C33.1637 45.5568 32.2781 45.2559 31.1861 45.2559C29.5611 45.2559 28.1682 45.9437 28.1682 47.8783C28.1682 49.8129 29.5611 50.4921 31.1861 50.4921C32.2781 50.4921 33.1637 50.1912 33.7139 49.6151V50.4061H35.1842V43.5277H33.7139ZM31.6762 49.2626C30.3607 49.2626 29.6471 48.8757 29.6471 47.8783C29.6471 46.8723 30.3607 46.4854 31.6762 46.4854C32.9917 46.4854 33.7139 46.8723 33.7139 47.8783C33.7139 48.8757 32.9917 49.2626 31.6762 49.2626Z" fill="white"/>
<path d="M46.0155 43.5277V44.8088H47.4857V43.5277H46.0155ZM46.0155 45.3419V50.4061H47.4857V45.3419H46.0155Z" fill="white"/>
<path d="M58.1911 47.8783C58.1911 49.7355 59.6011 50.4921 61.699 50.4921C63.5906 50.4921 64.9233 49.873 65.164 48.3856H63.6594C63.4616 49.039 62.7652 49.2626 61.699 49.2626C60.4351 49.2626 59.6613 48.9273 59.6613 47.8783C59.6613 46.8207 60.4351 46.4854 61.699 46.4854C62.7652 46.4854 63.4616 46.709 63.6594 47.3624H65.164C64.9233 45.875 63.5906 45.2559 61.699 45.2559C59.6011 45.2559 58.1911 46.0125 58.1911 47.8783Z" fill="white"/>
<path d="M80.6253 46.5714V45.3419H78.2265V43.8716L76.7476 44.2929V45.3419H75.4149V46.5714H76.7476V48.8843C76.7476 50.002 77.5902 50.4921 78.8971 50.4921C79.5764 50.4921 80.1353 50.4491 80.6253 50.3631V49.1766C80.0321 49.2626 79.7741 49.2626 79.3098 49.2626C78.4156 49.2626 78.2265 49.0132 78.2265 48.0331V46.5714H80.6253Z" fill="white"/>
<path d="M91.373 43.5277V44.8088H92.8432V43.5277H91.373ZM91.373 45.3419V50.4061H92.8432V45.3419H91.373Z" fill="white"/>
<path d="M107.057 50.4921C109.146 50.4921 110.565 49.7355 110.565 47.8783C110.565 46.0125 109.146 45.2559 107.057 45.2559C104.959 45.2559 103.549 46.0125 103.549 47.8783C103.549 49.7355 104.959 50.4921 107.057 50.4921ZM107.057 49.2626C105.689 49.2626 105.019 48.9273 105.019 47.8783C105.019 46.8207 105.689 46.4854 107.057 46.4854C108.415 46.4854 109.086 46.8207 109.086 47.8783C109.086 48.9273 108.415 49.2626 107.057 49.2626Z" fill="white"/>
<path d="M125.689 45.2559C124.46 45.2559 123.462 45.66 122.74 46.2275V45.3419H121.27V50.4061H122.74V47.5688C123.196 47.0357 124.262 46.5284 125.251 46.5284C126.463 46.5284 126.824 47.0873 126.824 48.162V50.4061H128.303L128.32 47.6032C128.303 45.7374 127.039 45.2559 125.689 45.2559Z" fill="white"/>
<path d="M142.504 45.2559C141.446 45.2559 140.432 45.4451 139.4 45.7804L139.925 46.8551C140.965 46.5456 141.773 46.4854 142.435 46.4854C143.123 46.4854 144.361 46.5628 144.361 47.5258C143.699 47.3022 142.899 47.1647 142.031 47.1647C140.423 47.1647 138.979 47.5774 138.979 48.8929C138.979 50.0364 139.864 50.4921 141.283 50.4921C142.478 50.4921 143.467 50.217 144.361 49.7785V50.4061H145.84V47.8525C145.823 45.9352 144.619 45.2559 142.504 45.2559ZM144.361 48.8327C143.604 49.1594 142.504 49.4087 141.704 49.4087C140.939 49.4087 140.449 49.3658 140.449 48.8327C140.449 48.3168 141.111 48.1276 142.212 48.1276C143.149 48.1276 143.845 48.2738 144.361 48.4372V48.8327Z" fill="white"/>
<path d="M160.708 45.2559C159.762 45.2559 158.868 45.5224 158.112 46.2017V45.3419H156.641V50.4061H158.112V47.371C159.006 46.6746 159.952 46.4854 160.777 46.4854C161.207 46.4854 161.594 46.537 162.075 46.6574V45.4279C161.731 45.3419 161.31 45.2559 160.708 45.2559Z" fill="white"/>
<path d="M178.314 45.3419L176.337 49.5205L174.17 45.3419H172.537L175.159 50.4061H175.916L174.892 52.5556H176.517L179.939 45.3419H178.314Z" fill="white"/>
</svg>
