<svg version="1.1" id="Layer_1" xmlns="http://www.w3.org/2000/svg" xmlns:xlink="http://www.w3.org/1999/xlink" x="0px" y="0px"
	 width="100%" viewBox="0 0 1080 1080" enable-background="new 0 0 1080 1080" xml:space="preserve">
<path fill="#FDFEFE" opacity="1.000000" stroke="none" 
	d="
M768.348389,324.733643 
	C800.310913,325.129608 831.800659,325.626343 863.292114,325.794037 
	C868.068970,325.819489 869.195190,327.383911 869.036194,331.828827 
	C868.649292,342.649506 868.590515,353.486633 868.651489,364.315735 
	C868.670776,367.724274 867.447144,369.756561 864.601685,371.600006 
	C813.189026,404.907593 761.837158,438.309082 710.474609,471.693909 
	C681.721924,490.382660 652.971436,509.074707 624.228821,527.778931 
	C622.895081,528.646851 621.648743,529.649170 619.074524,531.528748 
	C622.173706,531.752258 623.739685,531.946472 625.307861,531.966675 
	C703.783264,532.980042 782.258423,534.015930 860.735413,534.881958 
	C865.254272,534.931824 866.405151,536.384583 866.242798,540.669495 
	C865.883362,550.156494 865.682800,559.673523 866.045776,569.154236 
	C866.247681,574.427185 864.360901,575.527344 859.455627,575.454346 
	C787.812500,574.387207 716.166748,573.498291 644.521606,572.567688 
	C614.863831,572.182495 585.206665,571.699707 555.547668,571.516724 
	C550.846191,571.487732 549.117249,570.350159 549.341064,565.387329 
	C549.828552,554.572998 549.853271,543.731262 549.791077,532.902344 
	C549.771362,529.476318 551.016235,527.479553 553.846191,525.643799 
	C633.033081,474.276550 712.169800,422.831909 791.308594,371.390472 
	C793.517334,369.954742 795.658325,368.414673 799.005981,366.116516 
	C796.378784,365.710876 794.921448,365.304779 793.459167,365.286011 
	C714.816833,364.275421 636.174438,363.270721 557.530579,362.392944 
	C553.474854,362.347687 551.974182,361.263641 552.066162,357.032196 
	C552.315369,345.560669 552.151550,334.080170 552.151550,321.787567 
	C624.738098,322.776642 696.307129,323.751892 768.348389,324.733643 
z"/>
<path fill="#93BCDB" opacity="1.000000" stroke="none" 
	d="
M586.000000,869.685425 
	C574.167908,869.648499 562.834900,869.520691 551.504395,869.636780 
	C548.258179,869.670044 547.133057,868.605713 547.145813,865.329468 
	C547.337463,816.335388 547.426636,767.341064 547.556519,718.346741 
	C547.620178,694.349792 547.821228,670.352539 547.705139,646.356628 
	C547.684082,642.002869 548.811951,640.537476 553.304321,640.732300 
	C561.954590,641.107422 570.646484,641.189331 579.291138,640.772278 
	C584.212524,640.534912 585.018311,642.421753 585.001892,646.787903 
	C584.785095,704.447876 584.732361,762.108582 584.638489,819.769043 
	C584.636902,820.768921 584.721558,821.778076 584.616699,822.767090 
	C584.212158,826.584412 585.699524,828.147522 589.705139,828.040527 
	C597.864624,827.822693 606.034790,828.006348 614.200562,828.021240 
	C634.365051,828.057922 654.529602,828.101929 674.694092,828.123657 
	C681.809692,828.131287 681.830017,828.103455 681.841919,820.805176 
	C681.929871,766.977600 682.076965,713.149902 681.982483,659.322632 
	C681.973633,654.292908 683.259277,652.583923 688.399658,652.846313 
	C696.711121,653.270691 705.067688,653.220093 713.387878,652.909241 
	C718.119751,652.732422 719.292053,654.541504 719.275085,659.010376 
	C719.068909,713.170715 719.028625,767.331787 718.941895,821.492615 
	C718.931152,828.182739 718.922241,828.204529 725.428345,828.215820 
	C756.924988,828.270630 788.421570,828.317810 819.918213,828.355164 
	C826.763977,828.363281 826.766724,828.339722 826.777649,821.346802 
	C826.871887,761.186584 826.963501,701.026428 827.060791,640.866211 
	C827.071899,633.993469 827.085754,633.984314 833.866699,633.987671 
	C842.032471,633.991699 850.209412,634.274841 858.359863,633.928223 
	C863.147949,633.724609 864.222351,635.565979 864.209412,640.008118 
	C863.991638,714.833130 863.867432,789.658508 863.915222,864.483765 
	C863.918274,869.250183 862.450806,870.246704 857.968689,870.233154 
	C767.479431,869.958984 676.989685,869.838562 586.000000,869.685425 
z"/>
<path fill="#FEFEFF" opacity="1.000000" stroke="none" 
	d="
M446.998413,352.000000 
	C446.998413,316.530365 446.998413,281.560730 446.998413,246.295166 
	C461.215607,246.295166 475.141418,246.295166 489.834747,246.295166 
	C489.834747,247.943283 489.834778,249.693298 489.834778,251.443314 
	C489.834564,310.770844 489.946625,370.098694 489.775665,429.425690 
	C489.712250,451.427124 488.530151,473.365936 483.190002,494.883301 
	C474.281067,530.780640 451.466461,554.602112 417.071045,565.613342 
	C380.046356,577.466187 342.132111,576.921631 305.050629,564.401001 
	C272.987244,553.574768 252.923462,530.985474 243.867477,498.490234 
	C237.634537,476.124756 236.487839,453.213165 236.494507,430.170349 
	C236.511765,370.509552 236.498871,310.848724 236.498032,251.187912 
	C236.498001,249.561462 236.498032,247.935028 236.498032,246.154816 
	C250.845093,246.154816 264.631195,246.154816 279.001587,246.154816 
	C279.001587,248.230835 279.001556,250.167099 279.001556,252.103348 
	C279.001678,311.597504 278.982513,371.091675 279.013000,430.585846 
	C279.022919,449.933502 279.437439,469.293213 285.025452,488.017212 
	C291.238831,508.836670 305.067688,522.766968 325.570984,529.470398 
	C353.896973,538.731445 382.199188,537.184998 409.579590,525.959961 
	C426.756561,518.918030 436.986176,504.814575 440.673218,486.870636 
	C443.640961,472.427307 446.173431,457.669861 446.627014,442.981628 
	C447.557495,412.846008 446.964325,382.663300 446.998413,352.000000 
z"/>
<path fill="#93BCDA" opacity="1.000000" stroke="none" 
	d="
M332.977997,815.019165 
	C287.653351,778.506958 258.821808,732.153625 247.631027,675.379578 
	C244.593231,659.968018 243.492050,644.043823 242.951691,628.305054 
	C242.315369,609.770996 261.336517,598.912842 277.404877,608.242798 
	C295.406952,618.695557 313.152191,629.600037 330.844147,640.573975 
	C341.876312,647.416992 345.184143,660.907410 338.923615,671.524536 
	C332.346344,682.678772 318.952820,686.134888 307.235474,679.587158 
	C303.046082,677.246094 299.014282,674.623108 293.555511,671.305176 
	C294.321930,674.741333 294.658691,676.894104 295.283508,678.959717 
	C317.886963,753.684082 367.507782,799.555603 443.452362,816.737488 
	C455.046967,819.360596 467.197845,819.835938 479.136536,820.544617 
	C492.698608,821.349670 502.411041,830.602417 502.243988,843.611816 
	C502.078552,856.493103 492.016602,866.256897 478.514771,866.125854 
	C430.055176,865.655640 385.763916,851.763123 345.740173,824.403687 
	C341.480652,821.491943 337.407501,818.307556 332.977997,815.019165 
z"/>
</svg>