<svg width="24" height="24" viewBox="0 0 24 24" fill="none" xmlns="http://www.w3.org/2000/svg">
<path d="M5 5V7.5C5 8.32843 5.7835 9 6.75 9C7.7165 9 8.5 8.32843 8.5 7.5V5" stroke="#94BDDB" stroke-width="1.5" stroke-linecap="round"/>
<path d="M19.92 21.0201C19.08 21.6301 18.05 22.0001 16.93 22.0001C14.13 22.0001 11.85 19.73 11.85 16.92C11.85 14.12 14.12 11.8401 16.93 11.8401C19.73 11.8401 22.01 14.11 22.01 16.92" stroke="#94BDDB" stroke-width="1.5" stroke-linecap="round" stroke-linejoin="round"/>
<path d="M18.6571 15H15.9429C15.643 15 15.4 15.243 15.4 15.5429V16.8457M15.4 16.8457V18.2571C15.4 18.557 15.643 18.8 15.9429 18.8H18.6571M15.4 16.8457L18.0843 16.8457" stroke="#94BDDB" stroke-width="1.5" stroke-linecap="round"/>
<path d="M11.95 8.92999C12 11 11 12 8.92999 11.95H5.00999C2.99999 12 2 11 2 8.92999V5.01001C2 2.99001 3 1.98999 5.02 1.98999H8.94C11.01 1.98999 12.01 2.99001 11.96 5.01001" stroke="#94BDDB" stroke-width="1.5" stroke-linecap="round" stroke-linejoin="round"/>
<path d="M2 15C2 18.87 5.13 22 9 22L7.95 20.25" stroke="#94BDDB" stroke-width="1.5" stroke-linecap="round" stroke-linejoin="round"/>
<path d="M22 9C22 5.13 18.87 2 15 2L16.05 3.75" stroke="#94BDDB" stroke-width="1.5" stroke-linecap="round" stroke-linejoin="round"/>
</svg>
